HIERARCHY
ROOT Hips
{
  OFFSET 5.80788e-005 67.184 3.4734
  CHANNELS 6 Xposition Yposition Zposition Zrotation Xrotation Yrotation
  JOINT Chest
  {
    OFFSET 0 8.7983 -4.7612
    CHANNELS 3 Zrotation Xrotation Yrotation
    JOINT Chest2
    {
      OFFSET 0 8.0291 0.4195
      CHANNELS 3 Zrotation Xrotation Yrotation
      JOINT Chest3
      {
        OFFSET 0 9.9351 -2.2114
        CHANNELS 3 Zrotation Xrotation Yrotation
        JOINT Neck
        {
          OFFSET 0 22.3885 -0.4656
          CHANNELS 3 Zrotation Xrotation Yrotation
          JOINT Head
          {
            OFFSET -0.0001 12.643 3.4389
            CHANNELS 3 Zrotation Xrotation Yrotation
            End Site
            {
              OFFSET 0.0001 17.6655 0.5274
            }
          }
        }
        JOINT LeftCollar
        {
          OFFSET 2.2603 21.606 7.4023
          CHANNELS 3 Zrotation Xrotation Yrotation
          JOINT LeftShoulder
          {
            OFFSET 13.5163 -1.1332 -5.0146
            CHANNELS 3 Zrotation Xrotation Yrotation
            JOINT LeftElbow
            {
              OFFSET -0.0995 -28.05 -0.2431
              CHANNELS 3 Zrotation Xrotation Yrotation
              JOINT LeftWrist
              {
                OFFSET 0.0679 -23.3996 -0.1402
                CHANNELS 3 Zrotation Xrotation Yrotation
                JOINT LeftFinger1
                {
                  OFFSET 0.7932 -9.069 2.5189
                  CHANNELS 3 Zrotation Xrotation Yrotation
                  JOINT LeftFinger11
                  {
                    OFFSET -0.8272 -3.3923 0.5977
                    CHANNELS 3 Zrotation Xrotation Yrotation
                    JOINT LeftFinger12
                    {
                      OFFSET -0.5649 -2.3158 0.4082
                      CHANNELS 3 Zrotation Xrotation Yrotation
                      End Site
                      {
                        OFFSET -0.4919 -1.6479 0.2673
                      }
                    }
                  }
                }
                JOINT LeftFinger2
                {
                  OFFSET 0.9159 -9.2044 0.2193
                  CHANNELS 3 Zrotation Xrotation Yrotation
                  JOINT LeftFinger21
                  {
                    OFFSET 0.0117 -4.1944 -0.0248
                    CHANNELS 3 Zrotation Xrotation Yrotation
                    JOINT LeftFinger22
                    {
                      OFFSET 0.0071 -2.3249 -0.0142
                      CHANNELS 3 Zrotation Xrotation Yrotation
                      End Site
                      {
                        OFFSET -0.1475 -2.0882 0.0028
                      }
                    }
                  }
                }
                JOINT LeftFinger3
                {
                  OFFSET 0.6113 -8.7231 -2.0637
                  CHANNELS 3 Zrotation Xrotation Yrotation
                  JOINT LeftFinger31
                  {
                    OFFSET -0.1927 -3.8059 -0.2383
                    CHANNELS 3 Zrotation Xrotation Yrotation
                    JOINT LeftFinger32
                    {
                      OFFSET -0.1091 -2.1688 -0.1362
                      CHANNELS 3 Zrotation Xrotation Yrotation
                      End Site
                      {
                        OFFSET -0.2358 -1.9176 -0.0906
                      }
                    }
                  }
                }
                JOINT LeftFinger4
                {
                  OFFSET -0.6151 -8.0947 -3.5641
                  CHANNELS 3 Zrotation Xrotation Yrotation
                  JOINT LeftFinger41
                  {
                    OFFSET -0.4882 -2.341 -0.6462
                    CHANNELS 3 Zrotation Xrotation Yrotation
                    JOINT LeftFinger42
                    {
                      OFFSET -0.3575 -1.7167 -0.4742
                      CHANNELS 3 Zrotation Xrotation Yrotation
                      End Site
                      {
                        OFFSET -0.4187 -1.5237 -0.3496
                      }
                    }
                  }
                }
                JOINT LeftFinger0
                {
                  OFFSET -1.42 -1.8761 1.4223
                  CHANNELS 3 Zrotation Xrotation Yrotation
                  JOINT LeftFinger01
                  {
                    OFFSET -1.1471 -3.4929 2.6334
                    CHANNELS 3 Zrotation Xrotation Yrotation
                    JOINT LeftFinger02
                    {
                      OFFSET -0.823 -2.3 1.6571
                      CHANNELS 3 Zrotation Xrotation Yrotation
                      End Site
                      {
                        OFFSET -0.5822 -1.6914 1.1582
                      }
                    }
                  }
                }
              }
            }
          }
        }
        JOINT RightCollar
        {
          OFFSET -2.2603 21.606 7.4023
          CHANNELS 3 Zrotation Xrotation Yrotation
          JOINT RightShoulder
          {
            OFFSET -13.5187 -1.1334 -5.0155
            CHANNELS 3 Zrotation Xrotation Yrotation
            JOINT RightElbow
            {
              OFFSET 0.0994 -28.0499 -0.2431
              CHANNELS 3 Zrotation Xrotation Yrotation
              JOINT RightWrist
              {
                OFFSET -0.0679 -23.3996 -0.1402
                CHANNELS 3 Zrotation Xrotation Yrotation
                JOINT RightFinger1
                {
                  OFFSET -0.7932 -9.0691 2.5189
                  CHANNELS 3 Zrotation Xrotation Yrotation
                  JOINT RightFinger11
                  {
                    OFFSET 0.8272 -3.3923 0.5977
                    CHANNELS 3 Zrotation Xrotation Yrotation
                    JOINT RightFinger12
                    {
                      OFFSET 0.565 -2.3158 0.4082
                      CHANNELS 3 Zrotation Xrotation Yrotation
                      End Site
                      {
                        OFFSET 0.4919 -1.6479 0.2673
                      }
                    }
                  }
                }
                JOINT RightFinger2
                {
                  OFFSET -0.916 -9.2044 0.2193
                  CHANNELS 3 Zrotation Xrotation Yrotation
                  JOINT RightFinger21
                  {
                    OFFSET -0.0117 -4.1944 -0.0248
                    CHANNELS 3 Zrotation Xrotation Yrotation
                    JOINT RightFinger22
                    {
                      OFFSET -0.0071 -2.3249 -0.0142
                      CHANNELS 3 Zrotation Xrotation Yrotation
                      End Site
                      {
                        OFFSET 0.1475 -2.0882 0.0028
                      }
                    }
                  }
                }
                JOINT RightFinger3
                {
                  OFFSET -0.6113 -8.7231 -2.0637
                  CHANNELS 3 Zrotation Xrotation Yrotation
                  JOINT RightFinger31
                  {
                    OFFSET 0.1927 -3.8059 -0.2383
                    CHANNELS 3 Zrotation Xrotation Yrotation
                    JOINT RightFinger32
                    {
                      OFFSET 0.1091 -2.1688 -0.1362
                      CHANNELS 3 Zrotation Xrotation Yrotation
                      End Site
                      {
                        OFFSET 0.2358 -1.9176 -0.0906
                      }
                    }
                  }
                }
                JOINT RightFinger4
                {
                  OFFSET 0.6151 -8.0947 -3.564
                  CHANNELS 3 Zrotation Xrotation Yrotation
                  JOINT RightFinger41
                  {
                    OFFSET 0.4882 -2.341 -0.6462
                    CHANNELS 3 Zrotation Xrotation Yrotation
                    JOINT RightFinger42
                    {
                      OFFSET 0.3574 -1.7166 -0.4742
                      CHANNELS 3 Zrotation Xrotation Yrotation
                      End Site
                      {
                        OFFSET 0.4187 -1.5237 -0.3496
                      }
                    }
                  }
                }
                JOINT RightFinger0
                {
                  OFFSET 1.4199 -1.8761 1.4221
                  CHANNELS 3 Zrotation Xrotation Yrotation
                  JOINT RightFinger01
                  {
                    OFFSET 1.1472 -3.4929 2.6336
                    CHANNELS 3 Zrotation Xrotation Yrotation
                    JOINT RightFinger02
                    {
                      OFFSET 0.8229 -2.3 1.6571
                      CHANNELS 3 Zrotation Xrotation Yrotation
                      End Site
                      {
                        OFFSET 0.5822 -1.6914 1.1582
                      }
                    }
                  }
                }
              }
            }
          }
        }
      }
    }
  }
  JOINT RightHip
  {
    OFFSET -9.412 3.9771 -0.7758
    CHANNELS 3 Zrotation Xrotation Yrotation
    JOINT RightKnee
    {
      OFFSET -0.7531 -40.938 0
      CHANNELS 3 Zrotation Xrotation Yrotation
      JOINT RightAnkle
      {
        OFFSET 0 -40.1986 0
        CHANNELS 3 Zrotation Xrotation Yrotation
        JOINT RightToe
        {
          OFFSET 0 -4.4182 9.239
          CHANNELS 3 Zrotation Xrotation Yrotation
          End Site
          {
            OFFSET 0 0 6.1981
          }
        }
      }
    }
  }
  JOINT LeftHip
  {
    OFFSET 9.4119 3.9773 -0.7758
    CHANNELS 3 Zrotation Xrotation Yrotation
    JOINT LeftKnee
    {
      OFFSET 0.7532 -40.9383 0
      CHANNELS 3 Zrotation Xrotation Yrotation
      JOINT LeftAnkle
      {
        OFFSET 0 -40.1986 0
        CHANNELS 3 Zrotation Xrotation Yrotation
        JOINT LeftToe
        {
          OFFSET 0 -4.4182 9.239
          CHANNELS 3 Zrotation Xrotation Yrotation
          End Site
          {
            OFFSET 0 0 6.1981
          }
        }
      }
    }
  }
}
MOTION
Frames:	6
Frame Time:	0.0333333
5.80788e-005 67.184 3.4734 0 0 -0 0 0 -0 0 0 -0 0 0 -0 0 0 -0 0 0 -0 0 0 -12.5014 88.1196 14.2451 10.6914 -0.00160068 -0.00239207 0.000740045 -8.4365e-005 7.00714e-005 -9.52055e-007 9.93923e-017 -1.98785e-016 -1.59028e-015 9.93923e-017 -5.96354e-016 -1.59028e-015 -9.93923e-017 -5.96354e-016 -1.59028e-015 9.93923e-017 -1.98785e-016 -1.59028e-015 -0.0128176 0.00232552 8.52707e-005 9.93923e-017 5.96354e-016 -0 9.93923e-017 -1.98785e-016 -1.59028e-015 -0.0160551 0.00299681 0.000857156 -2.48481e-016 0 3.18055e-015 9.93923e-017 -1.98785e-016 -1.59028e-015 -0.0125865 0.0031206 0.00282719 0 1.98785e-016 -0 9.93923e-017 -1.98785e-016 -1.59028e-015 9.93923e-017 -5.96354e-016 -1.59028e-015 -9.93923e-017 -5.96354e-016 -1.59028e-015 -0.865644 0.16582 7.03859 -88.0329 10.2057 -10.5567 0.0015593 -0.00248883 -0.000788628 7.87605e-005 4.10553e-005 1.24965e-005 -3.97569e-016 -7.95139e-016 3.18055e-015 -1.98785e-016 -3.97569e-016 3.18055e-015 -1.98785e-016 0 3.18055e-015 -3.97569e-016 -7.95139e-016 3.18055e-015 0.0129473 0.00231697 -8.70038e-005 9.93923e-017 -7.95139e-016 1.59028e-015 -3.97569e-016 -7.95139e-016 3.18055e-015 0.0163314 0.00303369 -0.000872333 3.97569e-016 7.95139e-016 -3.18055e-015 -3.97569e-016 -7.95139e-016 3.18055e-015 0.0145763 0.00367772 -0.00326275 9.93923e-017 -3.97569e-016 -0 -3.97569e-016 -7.95139e-016 3.18055e-015 -1.98785e-016 -3.97569e-016 3.18055e-015 -1.98785e-016 0 3.18055e-015 3.42485 1.36937 -0.0640303 0.000136572 0.69354 0.00145564 -3.42573 -2.06297 -0.0607933 -3.19502e-024 0 -1.48106e-024 -3.42498 1.36123 0.0639712 -6.769e-005 0.712612 -0.0012277 3.42582 -2.07388 0.0612819 2.55305e-023 0 -2.31416e-026 
-0.750091 63.6083 0.977548 8.6731e-008 2.72662 -5.55168e-009 -0.442833 0.958215 3.24859 -0.93946 1.88976 6.5058 -0.939463 1.88976 6.50583 14.9082 -0.0891081 -0.106718 0.00632819 -0.0724699 -0.0516327 28.5907 8.96762 -91.3222 51.2013 -2.00806 33.5332 3.78523 -55.8423 74.3398 -20.8608 15.6213 -32.3833 4.35922e-006 1.15478e-006 -3.1674e-006 -9.15143e-007 4.98911e-007 1.4401e-006 4.71572e-006 1.05416e-005 2.25198e-006 4.35922e-006 1.15478e-006 -3.1674e-006 -0.0127861 0.00232858 9.23318e-005 -6.53108e-006 5.25362e-006 -2.29361e-006 4.35922e-006 1.15478e-006 -3.1674e-006 -0.0160757 0.0029939 0.000861365 -4.22015e-006 5.88044e-007 1.45234e-006 4.35922e-006 1.15478e-006 -3.1674e-006 -0.0125656 0.00310578 0.00281286 -3.44353e-006 -5.96432e-008 1.72698e-006 4.35922e-006 1.15478e-006 -3.1674e-006 -9.15143e-007 4.98911e-007 1.4401e-006 4.71572e-006 1.05416e-005 2.25198e-006 -1.93382 -19.4312 14.2804 -6.70179 -17.072 -9.72761 -7.15941 -44.9499 -1.7703 66.5874 28.1716 2.30793 -8.50948e-006 4.80228e-005 -1.1696e-005 1.07498e-005 -2.19076e-005 -6.70697e-006 -3.60791e-006 1.39929e-006 1.23666e-006 -8.50948e-006 4.80228e-005 -1.1696e-005 0.0129376 0.00227392 -8.92008e-005 3.62591e-006 5.44474e-009 -2.9877e-006 -8.50948e-006 4.80228e-005 -1.1696e-005 0.0163252 0.00299107 -0.000870152 5.06901e-015 -4.74598e-015 1.59028e-015 -8.50948e-006 4.80228e-005 -1.1696e-005 0.0145549 0.00364042 -0.00326063 -4.96962e-016 -6.93262e-015 -3.18055e-015 -8.50948e-006 4.80228e-005 -1.1696e-005 1.07498e-005 -2.19076e-005 -6.70697e-006 -3.60791e-006 1.39929e-006 1.23666e-006 -18.5427 -19.071 -12.2313 2.43612 23.3729 -0.577881 20.7088 -4.20577 -7.69946 -8.45047e-007 -8.37496e-008 -8.99318e-009 8.71029 -26.6409 15.1616 1.24506 42.9479 -1.01976 -11.8513 -17.7421 3.76305 1.6264e-006 -1.5287e-007 -1.58054e-006 
-0.706667 63.4134 1.85855 -2.7607e-007 0.894728 -1.0039e-007 -0.340081 1.25536 3.06001 -0.746987 2.49074 6.12958 -0.74699 2.49075 6.12961 14.1617 -0.407868 -0.487511 0.028258 -0.331416 -0.236084 26.2496 11.1119 -87.3036 53.2169 -0.837864 32.2536 4.13552 -52.7188 70.7046 -19.6581 14.7239 -30.4883 -3.18055e-015 -9.54166e-015 -0 3.18055e-015 -7.95139e-015 -3.18055e-015 -3.90762e-006 -4.96389e-007 -2.81512e-006 -3.18055e-015 -9.54166e-015 -0 -0.0128174 0.00232439 8.42588e-005 -1.8607e-006 4.40496e-006 -1.22624e-006 -3.18055e-015 -9.54166e-015 -0 -0.0160205 0.00298144 0.000853726 1.42388e-007 4.06085e-006 -3.98928e-006 -3.18055e-015 -9.54166e-015 -0 -0.0125485 0.00311725 0.00281825 -1.04523e-006 3.13242e-006 -2.97044e-006 -3.18055e-015 -9.54166e-015 -0 3.18055e-015 -7.95139e-015 -3.18055e-015 -3.90762e-006 -4.96389e-007 -2.81512e-006 -1.44144 -18.8459 14.7732 -12.3619 -15.1574 -10.4282 -7.45439 -42.0736 -2.34026 63.096 26.7219 1.93068 -1.28797e-006 -1.00835e-006 1.10354e-006 1.78755e-007 -5.51552e-007 -2.31419e-006 5.25226e-006 -1.7114e-005 -5.0285e-007 -1.28797e-006 -1.00835e-006 1.10354e-006 0.0129296 0.00230648 -8.53519e-005 -1.46177e-007 -8.45399e-006 -3.27804e-006 -1.28797e-006 -1.00835e-006 1.10354e-006 0.0163858 0.00302832 -0.000883793 -5.43313e-006 1.09616e-005 2.81686e-006 -1.28797e-006 -1.00835e-006 1.10354e-006 0.0145007 0.0036419 -0.00324094 7.95139e-016 1.01652e-006 -3.18055e-015 -1.28797e-006 -1.00835e-006 1.10354e-006 1.78755e-007 -5.51552e-007 -2.31419e-006 5.25226e-006 -1.7114e-005 -5.0285e-007 -17.1615 -16.9144 -11.4913 1.92899 24.1693 -0.402979 19.5678 -5.31184 -6.30407 1.39149e-015 -2.07811e-011 -6.36111e-015 7.62102 -23.6934 14.0508 1.46291 41.9876 -1.16257 -11.2941 -17.9907 3.12168 -4.96962e-016 2.25107e-007 3.18055e-015 
-0.707667 63.0346 2.54951 -2.20286e-007 -0.686921 -5.38374e-007 -0.298731 1.58669 3.06003 -0.682195 3.15513 6.1318 -0.682197 3.15514 6.13182 14.2831 -0.715178 -0.853021 0.048563 -0.580161 -0.413115 26.2496 11.1118 -87.3037 53.2171 -0.838327 32.2536 4.13554 -52.7183 70.7045 -19.6804 14.7213 -30.4858 -6.36111e-015 -1.59028e-015 3.18055e-015 -7.86499e-006 -2.0839e-005 -4.86912e-007 1.27222e-014 -7.95139e-015 -0 -6.36111e-015 -1.59028e-015 3.18055e-015 -0.0128575 0.00230713 8.43156e-005 -3.18055e-015 1.74931e-014 -0 -6.36111e-015 -1.59028e-015 3.18055e-015 -0.0159912 0.00297755 0.000839353 6.36111e-015 -6.36111e-015 3.18055e-015 -6.36111e-015 -1.59028e-015 3.18055e-015 -0.012654 0.00311573 0.00283846 3.18055e-015 1.59028e-015 3.18055e-015 -6.36111e-015 -1.59028e-015 3.18055e-015 -7.86499e-006 -2.0839e-005 -4.86912e-007 1.27222e-014 -7.95139e-015 -0 -0.886037 -19.3579 15.6944 -13.2731 -15.0514 -10.7855 -7.91605 -41.828 -2.67162 63.7157 26.7534 1.33847 7.95139e-016 -4.57205e-015 3.18055e-015 7.95139e-016 -5.76476e-015 -0 1.10797e-006 -2.13327e-006 1.21208e-006 7.95139e-016 -4.57205e-015 3.18055e-015 0.0129678 0.00236382 -9.13089e-005 1.59028e-015 -5.36719e-015 -3.18055e-015 7.95139e-016 -4.57205e-015 3.18055e-015 0.0162644 0.0030024 -0.000857675 1.10804e-006 3.91992e-006 1.21213e-006 7.95139e-016 -4.57205e-015 3.18055e-015 0.0146371 0.0036879 -0.00326351 7.95139e-016 7.95139e-016 3.18055e-015 7.95139e-016 -4.57205e-015 3.18055e-015 7.95139e-016 -5.76476e-015 -0 1.10797e-006 -2.13327e-006 1.21208e-006 -17.3231 -15.965 -11.5341 1.61661 26.1571 -0.272081 19.8316 -6.45351 -5.38806 -7.38943e-007 1.95747e-007 3.22179e-006 7.65759 -22.3297 14.011 1.82641 43.2898 -1.40987 -11.5801 -19.0274 2.73671 8.46061e-007 -6.62831e-008 1.04589e-008 
-0.708554 62.6616 3.23798 -5.6718e-008 -2.27079 -7.53934e-008 -0.257234 1.91852 3.05938 -0.617133 3.82053 6.13248 -0.617134 3.82054 6.13249 14.4026 -1.02346 -1.21815 0.068116 -0.829058 -0.590137 26.2496 11.1118 -87.3037 53.2169 -0.837798 32.2536 4.13552 -52.7189 70.7046 -19.7028 14.7186 -30.4834 -3.18055e-015 9.54166e-015 -3.18055e-015 -6.36111e-015 1.59028e-015 -3.18055e-015 -6.73215e-006 -1.21776e-005 -5.85916e-006 -3.18055e-015 9.54166e-015 -3.18055e-015 -0.0128769 0.00232409 9.20618e-005 2.00907e-006 1.2961e-006 -2.7588e-006 -3.18055e-015 9.54166e-015 -3.18055e-015 -0.0160164 0.00297642 0.000851807 2.0091e-006 2.25086e-006 -2.75878e-006 -3.18055e-015 9.54166e-015 -3.18055e-015 -0.0125837 0.00313072 0.00282802 -3.68324e-006 -1.64697e-005 -5.64565e-006 -3.18055e-015 9.54166e-015 -3.18055e-015 -6.36111e-015 1.59028e-015 -3.18055e-015 -6.73215e-006 -1.21776e-005 -5.85916e-006 -0.319819 -19.8616 16.6243 -14.1843 -14.944 -11.1413 -8.37376 -41.5804 -2.99895 64.336 26.7792 0.745537 -2.38542e-015 4.17448e-015 -9.54166e-015 -2.39713e-006 1.7927e-006 -1.12119e-007 -3.97569e-015 -1.78906e-015 -3.18055e-015 -2.38542e-015 4.17448e-015 -9.54166e-015 0.0130205 0.00233588 -8.65801e-005 2.38542e-015 -1.09332e-014 -6.36111e-015 -2.38542e-015 4.17448e-015 -9.54166e-015 0.0163813 0.00303762 -0.000872902 3.18055e-015 -1.19271e-014 -0 -2.38542e-015 4.17448e-015 -9.54166e-015 0.0145514 0.00369383 -0.0032574 2.38542e-015 -1.39149e-015 -3.18055e-015 -2.38542e-015 4.17448e-015 -9.54166e-015 -2.39713e-006 1.7927e-006 -1.12119e-007 -3.97569e-015 -1.78906e-015 -3.18055e-015 -17.4746 -15.0092 -11.5726 1.27548 28.1319 -0.120995 20.1198 -7.58417 -4.46651 1.59028e-015 2.25009e-007 -0 7.69597 -20.9636 13.9716 2.2052 44.5896 -1.67376 -11.8739 -20.0617 2.34422 1.59028e-015 2.25062e-007 -3.18055e-015 
-0.709326 62.2942 3.92373 3.93838e-007 -3.85628 6.06099e-008 -0.215604 2.25073 3.05809 -0.551809 4.4867 6.1317 -0.55181 4.48671 6.13171 14.5203 -1.33288 -1.58309 0.0868956 -1.07811 -0.76716 26.2496 11.1118 -87.3037 53.2169 -0.83794 32.2536 4.13552 -52.7187 70.7045 -19.7252 14.716 -30.4809 3.25629e-006 1.08249e-005 5.75362e-007 1.84808e-006 -1.93127e-007 1.23404e-006 1.00603e-006 -2.58838e-006 -1.37837e-006 3.25629e-006 1.08249e-005 5.75362e-007 -0.0128059 0.00231697 8.48311e-005 2.85355e-006 -2.95801e-006 -1.4421e-007 3.25629e-006 1.08249e-005 5.75362e-007 -0.0160137 0.00299222 0.000849592 2.85341e-006 3.07455e-007 -1.44143e-007 3.25629e-006 1.08249e-005 5.75362e-007 -0.0125528 0.00313035 0.00282814 5.70712e-006 7.15186e-007 -2.88096e-007 3.25629e-006 1.08249e-005 5.75362e-007 1.84808e-006 -1.93127e-007 1.23404e-006 1.00603e-006 -2.58838e-006 -1.37837e-006 0.25708 -20.3569 17.5628 -15.0942 -14.8291 -11.4951 -8.82794 -41.3309 -3.32244 64.9568 26.7991 0.152159 7.95139e-016 -7.95139e-016 3.18055e-015 3.20391e-007 -5.33842e-006 9.62447e-007 6.49918e-007 -1.13994e-006 -3.02518e-006 7.95139e-016 -7.95139e-016 3.18055e-015 0.0129322 0.00233194 -8.70032e-005 6.51469e-007 -1.1327e-005 -3.02517e-006 7.95139e-016 -7.95139e-016 3.18055e-015 0.0163168 0.00303343 -0.000872748 -6.73809e-006 2.42384e-005 -1.12008e-005 7.95139e-016 -7.95139e-016 3.18055e-015 0.0145924 0.00370842 -0.00328572 7.95139e-016 7.15625e-015 3.18055e-015 7.95139e-016 -7.95139e-016 3.18055e-015 3.20391e-007 -5.33842e-006 9.62447e-007 6.49918e-007 -1.13994e-006 -3.02518e-006 -17.6133 -14.0491 -11.6081 0.896243 30.0955 0.055962 20.4356 -8.70487 -3.5388 7.9341e-007 1.59056e-007 -1.60676e-006 7.73591 -19.5965 13.9326 2.60102 45.8875 -1.95551 -12.1756 -21.0934 1.94397 -8.46124e-007 6.6113e-008 -1.03563e-008 
